<svg viewBox="0 0 64 64" fill="none" xmlns="http://www.w3.org/2000/svg">
  <defs>
    <linearGradient id="bg" x1="0" y1="0" x2="1" y2="1">
      <stop offset="0%" stop-color="#1a1f3a"/>
      <stop offset="100%" stop-color="#0f1429"/>
    </linearGradient>
  </defs>
  <!-- Background circle -->
  <circle cx="32" cy="32" r="32" fill="url(#bg)"/>
  <!-- Stylized S -->
  <path d="M18 20 C 18 12, 26 12, 32 16 C 38 20, 38 24, 32 28 C 26 32, 18 32, 18 40 C 18 48, 26 48, 32 44" 
        stroke="#EEF2FF" stroke-width="3" stroke-linecap="round" fill="none"/>
  <!-- Stylized J/1 -->
  <path d="M42 16 L 42 40 C 42 44, 38 48, 34 48 C 30 48, 26 44, 26 40" 
        stroke="#66E4A8" stroke-width="3" stroke-linecap="round" fill="none"/>
  <!-- Checkered flag pattern -->
  <rect x="44" y="12" width="4" height="4" fill="#EEF2FF"/>
  <rect x="48" y="16" width="4" height="4" fill="#EEF2FF"/>
  <rect x="52" y="20" width="4" height="4" fill="#EEF2FF"/>
</svg>
